<svg xmlns="http://www.w3.org/2000/svg" width="900" height="528" viewBox="0 0 900 528" role="img" aria-label="H8 out-of-sample valuation error">
<rect width="100%" height="100%" fill="#ffffff"/>
<text x="24" y="32" text-anchor="start" font-family="Arial, sans-serif" font-size="20" font-weight="600" fill="#17212b">H8 out-of-sample valuation error</text>
<text x="24" y="57" text-anchor="start" font-family="Arial, sans-serif" font-size="12" font-weight="400" fill="#647383">Lower LOAO RMSE is better. Green groups survive 10% FDR; gold is the breadth benchmark.</text>
<text x="248" y="110" text-anchor="end" font-family="Arial, sans-serif" font-size="13" font-weight="400" fill="#17212b">Financial Integration</text>
<rect x="260" y="92" width="550" height="22" rx="3" fill="#d7dde3" opacity="0.38"/>
<rect x="260" y="92" width="414.88" height="22" rx="3" fill="#3b8c6e"/>
<text x="682.8750248319111" y="109" text-anchor="start" font-family="Arial, sans-serif" font-size="12" font-weight="600" fill="#17212b">1.759</text>
<text x="248" y="152" text-anchor="end" font-family="Arial, sans-serif" font-size="13" font-weight="400" fill="#17212b">Monetary Store</text>
<rect x="260" y="134" width="550" height="22" rx="3" fill="#d7dde3" opacity="0.38"/>
<rect x="260" y="134" width="444.94" height="22" rx="3" fill="#3b8c6e"/>
<text x="712.9368438738113" y="151" text-anchor="start" font-family="Arial, sans-serif" font-size="12" font-weight="600" fill="#17212b">1.887</text>
<text x="248" y="194" text-anchor="end" font-family="Arial, sans-serif" font-size="13" font-weight="400" fill="#17212b">Supply Absorption</text>
<rect x="260" y="176" width="550" height="22" rx="3" fill="#d7dde3" opacity="0.38"/>
<rect x="260" y="176" width="448.50" height="22" rx="3" fill="#3b8c6e"/>
<text x="716.4987824696907" y="193" text-anchor="start" font-family="Arial, sans-serif" font-size="12" font-weight="600" fill="#17212b">1.902</text>
<text x="248" y="236" text-anchor="end" font-family="Arial, sans-serif" font-size="13" font-weight="400" fill="#17212b">Control Rights</text>
<rect x="260" y="218" width="550" height="22" rx="3" fill="#d7dde3" opacity="0.38"/>
<rect x="260" y="218" width="481.69" height="22" rx="3" fill="#3478b8"/>
<text x="749.6895833375484" y="235" text-anchor="start" font-family="Arial, sans-serif" font-size="12" font-weight="600" fill="#17212b">2.043</text>
<text x="248" y="278" text-anchor="end" font-family="Arial, sans-serif" font-size="13" font-weight="400" fill="#17212b">Holder Capture</text>
<rect x="260" y="260" width="550" height="22" rx="3" fill="#d7dde3" opacity="0.38"/>
<rect x="260" y="260" width="485.12" height="22" rx="3" fill="#3478b8"/>
<text x="753.1203902422742" y="277" text-anchor="start" font-family="Arial, sans-serif" font-size="12" font-weight="600" fill="#17212b">2.057</text>
<text x="248" y="320" text-anchor="end" font-family="Arial, sans-serif" font-size="13" font-weight="400" fill="#17212b">Transaction Service Demand</text>
<rect x="260" y="302" width="550" height="22" rx="3" fill="#d7dde3" opacity="0.38"/>
<rect x="260" y="302" width="500.09" height="22" rx="3" fill="#3478b8"/>
<text x="768.0866156267516" y="319" text-anchor="start" font-family="Arial, sans-serif" font-size="12" font-weight="600" fill="#17212b">2.121</text>
<text x="248" y="362" text-anchor="end" font-family="Arial, sans-serif" font-size="13" font-weight="400" fill="#17212b">Security Commitment</text>
<rect x="260" y="344" width="550" height="22" rx="3" fill="#d7dde3" opacity="0.38"/>
<rect x="260" y="344" width="506.15" height="22" rx="3" fill="#3478b8"/>
<text x="774.1519187855697" y="361" text-anchor="start" font-family="Arial, sans-serif" font-size="12" font-weight="600" fill="#17212b">2.146</text>
<text x="248" y="404" text-anchor="end" font-family="Arial, sans-serif" font-size="13" font-weight="400" fill="#17212b">Subsidized Participation</text>
<rect x="260" y="386" width="550" height="22" rx="3" fill="#d7dde3" opacity="0.38"/>
<rect x="260" y="386" width="509.26" height="22" rx="3" fill="#3478b8"/>
<text x="777.2592592592594" y="403" text-anchor="start" font-family="Arial, sans-serif" font-size="12" font-weight="600" fill="#17212b">2.160</text>
<text x="248" y="446" text-anchor="end" font-family="Arial, sans-serif" font-size="13" font-weight="400" fill="#17212b">Raw function breadth</text>
<rect x="260" y="428" width="550" height="22" rx="3" fill="#d7dde3" opacity="0.38"/>
<rect x="260" y="428" width="427.03" height="22" rx="3" fill="#d99a2b"/>
<text x="695.0323733147712" y="445" text-anchor="start" font-family="Arial, sans-serif" font-size="12" font-weight="600" fill="#17212b">1.811</text>
</svg>
